<svg width="252" height="144" viewBox="0 0 252 144" fill="none" xmlns="http://www.w3.org/2000/svg">
<rect x="14" y="19" width="231" height="104" rx="52" fill="#E03D3B" fill-opacity="0.01" style="fill:#E03D3B;fill:color(display-p3 0.8784 0.2392 0.2314);fill-opacity:0.01;"/>
<g filter="url(#filter0_ddii_17560_19528)">
<path d="M12 72C12 43.2812 35.2812 20 64 20C76.5277 20 88.0207 24.4301 96.9978 31.8092C105.417 38.7297 115.101 45 126 45C136.899 45 146.583 38.7297 155.002 31.8092C163.979 24.4301 175.472 20 188 20C216.719 20 240 43.2812 240 72C240 100.719 216.719 124 188 124C175.472 124 163.979 119.57 155.002 112.191C146.583 105.27 136.899 99 126 99C115.101 99 105.417 105.27 96.9978 112.191C88.0207 119.57 76.5277 124 64 124C35.2812 124 12 100.719 12 72Z" fill="#E03D3B" fill-opacity="0.01" style="fill:#E03D3B;fill:color(display-p3 0.8784 0.2392 0.2314);fill-opacity:0.01;" shape-rendering="crispEdges"/>
</g>
<defs>
<filter id="filter0_ddii_17560_19528" x="0" y="0" width="252" height="144" filterUnits="userSpaceOnUse" color-interpolation-filters="sRGB">
<feFlood flood-opacity="0" result="BackgroundImageFix"/>
<feColorMatrix in="SourceAlpha" type="matrix" values="0 0 0 0 0 0 0 0 0 0 0 0 0 0 0 0 0 0 127 0" result="hardAlpha"/>
<feOffset dy="8"/>
<feGaussianBlur stdDeviation="6"/>
<feComposite in2="hardAlpha" operator="out"/>
<feColorMatrix type="matrix" values="0 0 0 0 0.123333 0 0 0 0 0.0376403 0 0 0 0 0.0365889 0 0 0 0.25 0"/>
<feBlend mode="normal" in2="BackgroundImageFix" result="effect1_dropShadow_17560_19528"/>
<feColorMatrix in="SourceAlpha" type="matrix" values="0 0 0 0 0 0 0 0 0 0 0 0 0 0 0 0 0 0 127 0" result="hardAlpha"/>
<feOffset dy="-8"/>
<feGaussianBlur stdDeviation="6"/>
<feComposite in2="hardAlpha" operator="out"/>
<feColorMatrix type="matrix" values="0 0 0 0 1 0 0 0 0 0.966667 0 0 0 0 0.966667 0 0 0 0.25 0"/>
<feBlend mode="normal" in2="effect1_dropShadow_17560_19528" result="effect2_dropShadow_17560_19528"/>
<feBlend mode="normal" in="SourceGraphic" in2="effect2_dropShadow_17560_19528" result="shape"/>
<feColorMatrix in="SourceAlpha" type="matrix" values="0 0 0 0 0 0 0 0 0 0 0 0 0 0 0 0 0 0 127 0" result="hardAlpha"/>
<feOffset dy="-2"/>
<feGaussianBlur stdDeviation="1"/>
<feComposite in2="hardAlpha" operator="arithmetic" k2="-1" k3="1"/>
<feColorMatrix type="matrix" values="0 0 0 0 0.121569 0 0 0 0 0.0392157 0 0 0 0 0.0352941 0 0 0 0.2 0"/>
<feBlend mode="normal" in2="shape" result="effect3_innerShadow_17560_19528"/>
<feColorMatrix in="SourceAlpha" type="matrix" values="0 0 0 0 0 0 0 0 0 0 0 0 0 0 0 0 0 0 127 0" result="hardAlpha"/>
<feOffset dy="2"/>
<feGaussianBlur stdDeviation="1"/>
<feComposite in2="hardAlpha" operator="arithmetic" k2="-1" k3="1"/>
<feColorMatrix type="matrix" values="0 0 0 0 1 0 0 0 0 0.964706 0 0 0 0 0.964706 0 0 0 0.25 0"/>
<feBlend mode="normal" in2="effect3_innerShadow_17560_19528" result="effect4_innerShadow_17560_19528"/>
</filter>
</defs>
</svg>
