<svg width="40" height="40" viewBox="0 0 40 40" fill="none" xmlns="http://www.w3.org/2000/svg">
<g filter="url(#filter0_ddii_17526_11593)">
<path d="M19.9825 8.75012C19.6572 8.75488 19.3466 8.88625 19.1166 9.11633L4.53324 23.6997C4.41327 23.8148 4.31749 23.9528 4.25152 24.1055C4.18554 24.2581 4.15068 24.4224 4.14899 24.5887C4.1473 24.755 4.17881 24.92 4.24167 25.074C4.30453 25.2279 4.39748 25.3678 4.51508 25.4854C4.63268 25.603 4.77256 25.6959 4.92653 25.7588C5.0805 25.8217 5.24546 25.8532 5.41176 25.8515C5.57806 25.8498 5.74235 25.8149 5.89501 25.749C6.04767 25.683 6.18563 25.5872 6.30081 25.4672L20.0004 11.7677L33.6999 25.4672C33.8151 25.5872 33.953 25.683 34.1057 25.749C34.2584 25.8149 34.4227 25.8498 34.589 25.8515C34.7553 25.8532 34.9202 25.8217 35.0742 25.7588C35.2282 25.6959 35.368 25.603 35.4856 25.4854C35.6032 25.3678 35.6962 25.2279 35.759 25.074C35.8219 24.92 35.8534 24.755 35.8517 24.5887C35.85 24.4224 35.8152 24.2581 35.7492 24.1055C35.6832 23.9528 35.5874 23.8148 35.4675 23.6997L20.8841 9.11633C20.766 8.99811 20.6253 8.90478 20.4704 8.84188C20.3155 8.77898 20.1496 8.74778 19.9825 8.75012Z" fill="white" fill-opacity="0.9" style="fill:white;fill-opacity:0.9;" shape-rendering="crispEdges"/>
</g>
<defs>
<filter id="filter0_ddii_17526_11593" x="2.14893" y="5.75" width="35.7026" height="23.1016" filterUnits="userSpaceOnUse" color-interpolation-filters="sRGB">
<feFlood flood-opacity="0" result="BackgroundImageFix"/>
<feColorMatrix in="SourceAlpha" type="matrix" values="0 0 0 0 0 0 0 0 0 0 0 0 0 0 0 0 0 0 127 0" result="hardAlpha"/>
<feOffset dy="1"/>
<feGaussianBlur stdDeviation="1"/>
<feComposite in2="hardAlpha" operator="out"/>
<feColorMatrix type="matrix" values="0 0 0 0 1 0 0 0 0 1 0 0 0 0 1 0 0 0 0.15 0"/>
<feBlend mode="normal" in2="BackgroundImageFix" result="effect1_dropShadow_17526_11593"/>
<feColorMatrix in="SourceAlpha" type="matrix" values="0 0 0 0 0 0 0 0 0 0 0 0 0 0 0 0 0 0 127 0" result="hardAlpha"/>
<feOffset dy="-1"/>
<feGaussianBlur stdDeviation="1"/>
<feComposite in2="hardAlpha" operator="out"/>
<feColorMatrix type="matrix" values="0 0 0 0 0 0 0 0 0 0 0 0 0 0 0 0 0 0 0.15 0"/>
<feBlend mode="normal" in2="effect1_dropShadow_17526_11593" result="effect2_dropShadow_17526_11593"/>
<feBlend mode="normal" in="SourceGraphic" in2="effect2_dropShadow_17526_11593" result="shape"/>
<feColorMatrix in="SourceAlpha" type="matrix" values="0 0 0 0 0 0 0 0 0 0 0 0 0 0 0 0 0 0 127 0" result="hardAlpha"/>
<feOffset dy="-0.5"/>
<feGaussianBlur stdDeviation="0.25"/>
<feComposite in2="hardAlpha" operator="arithmetic" k2="-1" k3="1"/>
<feColorMatrix type="matrix" values="0 0 0 0 1 0 0 0 0 1 0 0 0 0 1 0 0 0 1 0"/>
<feBlend mode="normal" in2="shape" result="effect3_innerShadow_17526_11593"/>
<feColorMatrix in="SourceAlpha" type="matrix" values="0 0 0 0 0 0 0 0 0 0 0 0 0 0 0 0 0 0 127 0" result="hardAlpha"/>
<feOffset dy="0.5"/>
<feGaussianBlur stdDeviation="0.5"/>
<feComposite in2="hardAlpha" operator="arithmetic" k2="-1" k3="1"/>
<feColorMatrix type="matrix" values="0 0 0 0 0.243137 0 0 0 0 0.243137 0 0 0 0 0.243137 0 0 0 0.29 0"/>
<feBlend mode="normal" in2="effect3_innerShadow_17526_11593" result="effect4_innerShadow_17526_11593"/>
</filter>
</defs>
</svg>
